<?xml version="1.0" encoding="utf-8"?>
<!-- Generated by IcoMoon.io -->
<!DOCTYPE svg PUBLIC "-//W3C//DTD SVG 1.1//EN" "http://www.w3.org/Graphics/SVG/1.1/DTD/svg11.dtd">
<svg version="1.1" xmlns="http://www.w3.org/2000/svg" xmlns:xlink="http://www.w3.org/1999/xlink" width="119" height="128" viewBox="0 0 119 128">
<path fill="#179eff" d="M64 116.357l45.714-24.929v-45.429l-45.714 16.643v53.714zM59.429 54.571l49.857-18.143-49.857-18.143-49.857 18.143zM118.857 36.571v54.857q0 2.5-1.286 4.643t-3.5 3.357l-50.286 27.429q-2 1.143-4.357 1.143t-4.357-1.143l-50.286-27.429q-2.214-1.214-3.5-3.357t-1.286-4.643v-54.857q0-2.857 1.643-5.214t4.357-3.357l50.286-18.286q1.571-0.571 3.143-0.571t3.143 0.571l50.286 18.286q2.714 1 4.357 3.357t1.643 5.214z"></path>
</svg>
