<?xml version="1.0" encoding="UTF-8" standalone="no"?>
<svg
   xmlns:dc="http://purl.org/dc/elements/1.1/"
   xmlns:cc="http://creativecommons.org/ns#"
   xmlns:rdf="http://www.w3.org/1999/02/22-rdf-syntax-ns#"
   xmlns:svg="http://www.w3.org/2000/svg"
   xmlns="http://www.w3.org/2000/svg"
   viewBox="0 0 365.44 365.44"
   height="365.44"
   width="365.44"
   xml:space="preserve"
   id="svg2"
   version="1.1"><metadata
     id="metadata8"><rdf:RDF><cc:Work
         rdf:about=""><dc:format>image/svg+xml</dc:format><dc:type
           rdf:resource="http://purl.org/dc/dcmitype/StillImage" /></cc:Work></rdf:RDF></metadata><defs
     id="defs6"><clipPath
       id="clipPath20"
       clipPathUnits="userSpaceOnUse"><path
         id="path18"
         d="M 0,2740.77 V 0 h 2740.77 v 2740.77 z" /></clipPath></defs><g
     transform="matrix(1.3333333,0,0,-1.3333333,0,365.44)"
     id="g10"><g
       transform="scale(0.1)"
       id="g12"><g
         id="g14"><g
           clip-path="url(#clipPath20)"
           id="g16"><path
             id="path22"
             style="fill:#179EFF;fill-opacity:1;fill-rule:nonzero;stroke:none"
             d="m 2185.57,300.07 c -119.09,89.7 -294.62,157.77 -480.5,229.852 -221.2,85.777 -471.92,183 -660.17,332.797 -213.267,169.731 -316.943,383.911 -316.943,654.801 0,242.97 100.871,450.79 291.703,600.99 213.99,168.42 538.08,257.44 937.23,257.44 110.29,0 215.7,-6.79 313.34,-20.2 8.62,-1.15 16.92,3.53 20.48,11.22 3.66,7.89 1.78,17.1 -4.69,22.93 -251.64,226.26 -576.77,350.87 -915.5,350.87 -366.09,0 -710.274,-142.55 -969.129,-401.39 C 142.547,2080.55 0,1736.41 0,1370.38 0,1004.27 142.551,660.121 401.395,401.32 660.227,142.531 1004.4,0 1370.52,0 c 295.78,0 577.57,92.8516 814.92,268.52 4.97,3.679 7.94,9.57 7.97,15.75 0.03,6.179 -2.91,12.089 -7.84,15.8" /><path
             id="path24"
             style="fill:#179EFF;fill-opacity:1;fill-rule:nonzero;stroke:none"
             d="m 2735.04,1497 c -0.45,5.22 -3.01,10.12 -7.04,13.46 -286,237.37 -517.3,334.19 -798.36,334.19 -149.99,0 -264.97,-30.08 -341.77,-89.41 -66.51,-51.38 -101.66,-122.94 -101.66,-206.94 0,-235.38 287.66,-342.66 620.76,-466.88 171.66,-64.02 349.17,-130.221 512.13,-220.619 2.91,-1.629 6.21,-2.481 9.54,-2.481 2.29,0 4.54,0.399 6.67,1.168 5.36,1.922 9.61,6.071 11.68,11.364 62.23,159.458 93.78,327.518 93.78,499.528 0,40.4 -1.93,83.01 -5.73,126.62" /></g></g></g></g></svg>