<?xml version="1.0" encoding="utf-8"?>
<!-- Generated by IcoMoon.io -->
<!DOCTYPE svg PUBLIC "-//W3C//DTD SVG 1.1//EN" "http://www.w3.org/Graphics/SVG/1.1/DTD/svg11.dtd">
<svg version="1.1" xmlns="http://www.w3.org/2000/svg" xmlns:xlink="http://www.w3.org/1999/xlink" width="155" height="128" viewBox="0 0 155 128">
<path fill="#179eff" d="M45.714 116.571l27.429-13.714v-22.429l-27.429 11.714v24.429zM41.143 84.143l28.857-12.357-28.857-12.357-28.857 12.357zM118.857 116.571l27.429-13.714v-22.429l-27.429 11.714v24.429zM114.286 84.143l28.857-12.357-28.857-12.357-28.857 12.357zM82.286 63.214l27.429-11.786v-19l-27.429 11.714v19.071zM77.714 36.143l31.5-13.5-31.5-13.5-31.5 13.5zM155.429 73.143v29.714q0 2.571-1.357 4.786t-3.714 3.357l-32 16q-1.786 1-4.071 1t-4.071-1l-32-16q-0.357-0.143-0.5-0.286-0.143 0.143-0.5 0.286l-32 16q-1.786 1-4.071 1t-4.071-1l-32-16q-2.357-1.143-3.714-3.357t-1.357-4.786v-29.714q0-2.714 1.536-5t4.036-3.429l31-13.286v-28.571q0-2.714 1.536-5t4.036-3.429l32-13.714q1.643-0.714 3.571-0.714t3.571 0.714l32 13.714q2.5 1.143 4.036 3.429t1.536 5v28.571l31 13.286q2.571 1.143 4.071 3.429t1.5 5z"></path>
</svg>
