<?xml version="1.0" encoding="utf-8"?>
<!-- Generated by IcoMoon.io -->
<!DOCTYPE svg PUBLIC "-//W3C//DTD SVG 1.1//EN" "http://www.w3.org/Graphics/SVG/1.1/DTD/svg11.dtd">
<svg version="1.1" xmlns="http://www.w3.org/2000/svg" xmlns:xlink="http://www.w3.org/1999/xlink" width="64" height="128" viewBox="0 0 64 128">
<path fill="#179eff" d="M63.214 40.429q1.286 1.429 0.5 3.143l-38.571 82.643q-0.929 1.786-3 1.786-0.286 0-1-0.143-1.214-0.357-1.821-1.357t-0.321-2.143l14.071-57.714-29 7.214q-0.286 0.071-0.857 0.071-1.286 0-2.214-0.786-1.286-1.071-0.929-2.786l14.357-58.929q0.286-1 1.143-1.643t2-0.643h23.429q1.357 0 2.286 0.893t0.929 2.107q0 0.571-0.357 1.286l-12.214 33.071 28.286-7q0.571-0.143 0.857-0.143 1.357 0 2.429 1.071z"></path>
</svg>
